PathFileType	4	(X/Y/Z)	C:/Users/beibeiliu/ov580/test_trc/capture2\sequence.37_training_dense_left.trc
DataRate	CameraRate	NumFrames	NumMarkers	Units	OrigDataRate	OrigDataStartFrame	OrigNumFrames
120	120	13	19	mm	120	278	370
Frame#	Time	ThumbCMC			ThumbMCP			ThumbIP			ThumbTip			IndexMCP			IndexPIP			IndexTip			MiddleMCP			MiddlePIP			MiddleTip			RingMCP			RingPIP			RingTip			PinkyMCP			PinkyPIP			PinkyTip			BackHand1			BackHand2			BackHand3	
		X0	Y0	Z0	X1	Y1	Z1	X2	Y2	Z2	X3	Y3	Z3	X4	Y4	Z4	X5	Y5	Z5	X6	Y6	Z6	X7	Y7	Z7	X8	Y8	Z8	X9	Y9	Z9	X10	Y10	Z10	X11	Y11	Z11	X12	Y12	Z12	X13	Y13	Z13	X14	Y14	Z14	X15	Y15	Z15	X16	Y16	Z16	X17	Y17	Z17	X18	Y18	Z18	
277	2.30833	-150.009	60.7006	1.20521	-134.026	63.5811	-25.2384	-127.114	65.8454	-51.5739	-122.002	56.6774	-74.6027	-145.922	38.8519	-73.9841	-116.712	42.1588	-79.3024	-102.089	48.6018	-49.1518	-141.24	17.9055	-70.7813	-109.994	22.8014	-71.2889	-108.509	33.7812	-31.9059	-135.655	2.87077	-65.0161	-104.73	6.20319	-61.4524	-105.062	26.1692	-31.1643	-133.361	-12.5213	-52.156	-106.464	-0.17068	-55.4588	-91.0984	14.9733	-31.2733	-170.034	-0.796123	-17.9516	-174.441	6.98163	11.583	-175.98	32.9401	-10.4779	
278	2.31667	-150.545	61.7296	1.61043	-134.705	68.8428	-27.3776	-129.434	65.616	-54.6888	-123.706	43.0537	-73.4016	-147.851	41.4148	-75.1382	-118.28	42.2418	-82.5735	-97.9448	47.422	-57.4142	-141.196	21.6891	-73.0353	-108.169	24.7866	-72.6375	-105.287	33.5402	-36.6295	-134.895	0.701867	-64.1765	-103.381	8.51839	-61.8469	-100.99	23.6239	-32.7697	-132.657	-15.1361	-51.6238	-105.08	0.537177	-57.2419	-92.7483	16.0606	-37.1155	-167.781	-1.09109	-17.9009	-175.034	7.24987	12.1206	-175.745	35.3368	-10.9563	
279	2.325	-150.426	62.0726	-0.0778569	-134.347	63.7072	-25.2849	-127.905	64.4822	-56.1486	-122.88	39.1496	-69.7143	-147.732	39.1419	-74.8144	-120.567	43.1884	-85.2866	-96.7983	46.4926	-59.455	-138.678	19.2144	-73.9303	-107.938	24.2627	-73.4312	-101.897	33.3404	-38.4567	-133.298	0.969306	-65.6537	-102.176	9.55189	-62.829	-101.464	25.2325	-33.9351	-130.855	-13.5778	-51.6075	-104.916	-6.0571	-58.5567	-88.6023	12.2348	-36.3001	-168.198	3.70768	-20.9618	-173.794	3.57901	10.984	-177.396	34.0328	-6.86928	
280	2.33333	-149.255	61.9498	2.88134	-133.404	66.1566	-25.0725	-129.058	61.4659	-51.6248	-122.693	45.4461	-69.4348	-148.508	37.5171	-70.7024	-121.031	34.9406	-84.2608	-96.2135	42.7373	-64.6545	-140.577	21.9966	-72.7203	-110.726	22.2778	-76.8553	-99.0926	35.8055	-41.8046	-136.078	0.672251	-62.8145	-102.648	11.0955	-64.0158	-98.4172	22.5414	-32.6072	-131.797	-13.7618	-51.0207	-102.951	-5.64086	-57.256	-87.7813	12.7261	-37.2003	-168.275	1.69952	-18.225	-172.969	3.08909	15.3588	-175.144	32.236	-5.00294	
281	2.34167	-148.206	58.0125	2.25464	-133.263	67.287	-25.1758	-127.244	65.9842	-48.0611	-123.409	48.118	-68.1785	-147.409	35.5197	-68.5077	-117.71	36.176	-83.9834	-95.0853	43.3706	-61.2686	-139.664	19.1164	-73.7635	-107.669	21.6979	-74.7848	-96.5411	29.7976	-43.5676	-133.306	1.46691	-65.0811	-103.162	5.253	-64.6002	-97.7764	25.2696	-35.4157	-131.962	-16.8831	-47.985	-103.748	-3.65308	-57.2928	-86.9539	12.9909	-35.133	-166.332	2.4838	-17.8964	-171.909	4.50807	14.3927	-173.128	32.7944	-5.50923	
282	2.35	-148.626	62.0989	-0.0590573	-132.839	66.3938	-20.6903	-127.229	69.6372	-47.552	-121.751	52.4711	-72.5898	-146.48	36.2598	-71.8409	-119.966	36.6055	-83.3502	-95.6277	43.6712	-58.1317	-138.925	15.3679	-72.1134	-109.103	21.8713	-77.711	-94.0253	29.6002	-47.5417	-134.223	1.94749	-65.2742	-103.793	7.94017	-65.6412	-94.9474	20.841	-32.9539	-131.329	-12.9017	-50.9979	-101.515	-6.32387	-56.2708	-86.6733	12.6864	-36.978	-169.119	3.14276	-17.6541	-170.55	2.8178	14.9674	-175.148	36.283	-6.51799	
283	2.35833	-148.182	59.4655	3.15915	-133.63	66.4379	-24.2533	-127.699	66.8591	-48.6172	-122.057	53.8973	-70.5803	-148.033	36.8434	-68.1842	-121.496	34.5362	-83.0327	-96.0099	41.5009	-58.4714	-140.351	18.0166	-72.0452	-110.85	17.8935	-77.6811	-92.0873	28.0044	-48.3256	-135.08	-1.98883	-62.6621	-103.25	3.87363	-65.1153	-94.1235	19.725	-36.5678	-130.689	-14.7184	-49.6259	-103.217	-9.83796	-55.5252	-84.551	10.0022	-40.1789	-168.183	-0.789945	-13.9785	-171.361	8.75564	15.2004	-174.467	36.6535	-6.40048	
284	2.36667	-147.268	58.6989	4.82554	-133.053	68.1038	-20.1661	-128.097	68.8095	-47.5997	-123.17	47.9135	-66.9424	-148.83	35.5737	-65.7107	-116.485	33.0637	-80.7384	-95.5255	43.0324	-59.11	-142.666	17.8256	-69.2316	-112.544	18.9563	-79.4644	-92.1698	30.1891	-49.5003	-135.11	1.06229	-62.742	-105.418	4.46063	-67.3198	-93.5938	21.2814	-39.8068	-131.666	-10.9998	-50.6749	-106.145	-8.38911	-57.3381	-84.0955	10.9606	-35.7556	-166.643	3.43361	-15.9563	-172.2	3.53235	18.4457	-173.276	37.8461	-4.50348	
285	2.375	-147.758	58.8571	3.59145	-133.9	70.7019	-21.5197	-127.887	67.1987	-46.4257	-122.336	52.3862	-69.0007	-145.897	34.8173	-69.1061	-117.3	38.1288	-83.0224	-95.1953	42.6333	-61.8803	-140.498	16.3748	-71.7381	-109.329	21.0864	-77.6724	-92.5792	30.896	-48.0715	-137.078	0.013278	-60.7399	-106.19	6.40244	-67.6437	-93.1701	18.6669	-37.5325	-132.689	-10.9963	-49.7438	-103.181	-8.23946	-56.1366	-85.8597	9.20639	-38.638	-168.824	2.92565	-14.0075	-170.818	5.04366	13.4688	-173.408	36.4316	-2.17566	
286	2.38333	-147.706	58.9196	1.13947	-132.676	69.6495	-19.6019	-127.633	67.8822	-49.72	-123.224	48.3228	-67.3812	-145.55	36.5315	-70.7727	-118.948	35.9506	-83.0845	-95.8101	39.2313	-62.7637	-143.088	17.5576	-68.7615	-111.832	18.6104	-78.7054	-93.8197	29.3234	-45.5875	-136.208	3.81929	-65.7867	-104.239	5.00592	-66.7448	-94.7417	19.9731	-36.365	-133.222	-14.1987	-49.1154	-106.597	-7.55123	-58.0044	-85.9027	11.286	-38.8872	-166.685	2.84792	-17.1396	-172.733	10.3879	13.4027	-173.041	39.2094	-2.93128	
287	2.39167	-148.082	61.2173	3.62519	-133.869	66.5628	-23.3419	-127.272	69.0948	-51.2394	-122.233	48.7135	-70.608	-146.377	38.1036	-71.7214	-120.431	33.8968	-83.6294	-94.9597	43.2202	-59.6497	-143.565	18.8064	-69.913	-108.257	21.7507	-77.9896	-94.5831	30.2516	-47.0765	-136.925	2.76236	-63.5827	-107.355	6.28808	-69.2025	-95.1431	21.5482	-38.7253	-134.599	-13.2497	-49.0303	-106.796	-6.63253	-57.6984	-89.4948	10.8038	-41.7778	-169.564	2.53501	-18.2826	-174.441	8.22746	16.143	-173.914	39.6049	-4.54152	
288	2.4	-147.505	59.74	2.45914	-131.783	71.326	-22.4463	-126.792	68.9144	-51.3744	-121.958	54.3778	-68.3749	-147.737	35.7933	-69.326	-120.7	35.8462	-84.4842	-96.1772	41.8829	-61.474	-141.657	17.019	-72.7092	-110.951	18.674	-78.1619	-94.4436	31.7948	-45.5154	-137.851	-1.20744	-63.4508	-109.067	7.51403	-69.0036	-96.9447	21.5458	-41.8952	-135.095	-13.5331	-50.5824	-105.753	-5.54428	-57.8874	-87.2818	13.2826	-40.789	-170.646	2.75198	-14.3713	-172.751	9.14436	14.693	-173.61	36.6063	-8.13584	
289	2.40833	-148.215	61.2414	3.88081	-131.611	70.086	-21.2599	-126.409	69.7255	-51.4022	-121.377	61.2406	-72.0721	-149.134	39.886	-67.32	-118.69	35.3286	-81.0001	-98.3446	40.9765	-57.5957	-144.287	18.9615	-69.4964	-113.52	18.9341	-80.2723	-95.1768	31.0705	-44.0851	-137.366	3.08235	-65.9865	-107.838	9.21706	-68.4021	-97.0614	20.014	-36.5545	-135.188	-13.1975	-49.4239	-109.762	-7.91748	-60.1457	-88.3086	13.3886	-41.4941	-168.427	3.18738	-17.4588	-175.371	7.68329	13.9509	-175.76	34.359	-5.09298	
